<?xml version="1.0" encoding="UTF-8" standalone="no"?>
<!DOCTYPE svg PUBLIC "-//W3C//DTD SVG 1.1//EN" "http://www.w3.org/Graphics/SVG/1.1/DTD/svg11.dtd">
<svg xmlns="http://www.w3.org/2000/svg" version="1.1" viewBox="0.00 0.00 282.00 282.00">
<g stroke-width="2.00" fill="none" stroke-linecap="butt">
<path stroke="#e3f6f2" vector-effect="non-scaling-stroke" d="
  M 205.61 58.28
  Q 201.88 59.28 199.25 59.51
  C 192.32 60.10 184.04 60.46 176.72 59.45
  Q 175.45 59.27 175.10 60.08
  A 1.44 1.44 0.0 0 0 176.59 62.08
  C 187.30 60.78 198.18 61.98 209.23 62.45"
/>
<path stroke="#e3f6f2" vector-effect="non-scaling-stroke" d="
  M 209.45 64.62
  L 188.60 65.13
  Q 185.44 65.21 188.02 67.01
  Q 188.89 67.62 191.76 67.66
  Q 202.04 67.80 212.35 67.90
  Q 212.64 67.91 212.64 68.20
  Q 212.64 68.38 212.58 68.47"
/>
<path stroke="#e3f6f2" vector-effect="non-scaling-stroke" d="
  M 213.50 70.08
  L 175.93 70.58
  A 0.68 0.68 0.0 0 0 175.41 71.68
  C 176.02 72.43 177.37 72.95 178.44 73.00
  Q 192.20 73.71 205.95 72.87
  C 208.97 72.69 211.99 73.48 215.14 73.23"
/>
<path stroke="#e3f6f2" vector-effect="non-scaling-stroke" d="
  M 37.93 173.12
  Q 40.33 172.54 40.11 170.70
  Q 40.05 170.17 39.59 169.92
  Q 36.72 168.31 33.67 169.52"
/>
<path stroke="#e3f6f2" vector-effect="non-scaling-stroke" d="
  M 31.06 166.28
  L 60.75 166.27
  A 1.52 1.52 0.0 0 0 62.11 164.07
  C 61.61 163.06 60.03 163.33 59.13 163.32
  Q 45.48 163.25 31.81 163.53
  A 1.74 1.70 -31.7 0 1 31.00 163.35
  Q 30.17 162.93 28.94 163.05"
/>
<path stroke="#e3f6f2" vector-effect="non-scaling-stroke" d="
  M 28.76 161.51
  Q 38.80 160.24 44.50 160.45
  Q 53.06 160.77 61.45 160.66
  A 0.96 0.96 0.0 0 0 62.26 159.22
  C 60.95 156.99 54.34 158.06 52.26 158.70
  Q 51.78 158.85 51.33 158.60
  L 50.75 158.28
  Q 50.28 158.02 49.73 158.01
  Q 40.04 157.99 30.35 157.75
  C 29.30 157.72 28.28 157.19 27.22 156.96"
/>
<path stroke="#828681" vector-effect="non-scaling-stroke" d="
  M 61.89 94.75
  L 62.67 94.51
  A 1.55 1.47 -46.4 0 1 63.47 94.47
  Q 69.41 95.75 75.50 95.69
  Q 90.12 95.52 104.66 95.34
  A 0.91 0.90 -76.5 0 1 105.47 96.67
  L 97.50 111.87
  A 2.32 2.32 0.0 0 0 98.43 114.98
  L 125.39 129.91
  A 2.77 2.77 0.0 0 0 129.20 128.76
  L 143.52 101.00
  Q 144.29 99.52 145.02 101.02
  Q 148.05 107.24 151.41 113.28
  Q 152.16 114.63 152.31 115.69
  A 1.05 1.05 0.0 0 1 151.94 116.66
  L 148.95 119.12
  Q 148.50 119.49 148.50 120.07
  C 148.47 121.91 149.74 122.63 151.51 122.86
  Q 164.23 124.53 176.85 126.05
  A 3.24 3.23 12.2 0 0 180.31 123.83
  Q 183.77 113.05 187.58 102.03
  Q 188.30 99.92 188.07 98.33
  A 1.25 1.25 0.0 0 0 187.50 97.47
  Q 184.91 95.91 182.98 98.25
  A 1.26 1.25 -36.8 0 1 180.86 97.95
  Q 178.56 92.65 175.53 87.55
  C 170.98 79.92 167.11 80.01 159.04 78.80
  Q 158.53 78.72 158.50 78.21
  Q 158.05 71.39 152.86 68.36
  C 149.76 66.54 148.92 66.14 148.03 62.32
  C 146.32 54.96 140.47 49.32 132.65 49.59
  Q 130.00 49.68 126.88 50.02"
/>
<path stroke="#e3f5eb" vector-effect="non-scaling-stroke" d="
  M 223.35 192.54
  L 229.61 192.83"
/>
<path stroke="#828681" vector-effect="non-scaling-stroke" d="
  M 229.61 192.83
  Q 236.18 194.73 242.38 193.76
  Q 248.78 192.75 251.82 188.62
  C 256.34 182.51 253.46 175.28 246.85 171.66
  A 1.53 1.53 0.0 0 1 246.18 170.93
  C 244.97 168.23 244.23 164.93 242.74 162.85
  C 238.95 157.59 231.30 156.90 225.94 160.14
  A 1.24 1.23 -29.0 0 1 224.19 159.64
  Q 222.82 156.92 220.58 154.79
  C 217.76 152.12 213.97 152.15 211.82 148.63
  Q 205.16 137.73 200.30 128.74
  Q 199.13 126.57 197.77 125.05
  A 1.27 1.24 70.5 0 0 196.90 124.62
  Q 195.30 124.52 193.88 125.35
  Q 180.52 133.12 167.74 140.75
  A 1.57 1.57 0.0 0 0 167.19 142.89
  L 182.57 169.40
  A 0.67 0.66 -26.9 0 1 182.26 170.34
  Q 174.20 173.90 165.33 172.92
  A 1.65 1.64 -87.6 0 1 163.87 171.33
  L 163.74 167.31
  A 0.73 0.73 0.0 0 0 163.31 166.66
  Q 160.79 165.50 159.52 167.06
  Q 150.85 177.75 142.73 188.07
  A 2.81 2.80 45.2 0 0 142.72 191.54
  Q 150.48 201.50 158.05 210.44
  Q 159.43 212.06 161.06 211.26
  Q 161.64 210.98 161.77 210.34
  L 162.46 207.04
  A 1.61 1.60 5.0 0 1 163.98 205.77
  Q 170.80 205.58 177.26 205.52
  C 184.40 205.45 188.42 201.78 192.04 196.24
  C 192.86 195.00 194.14 194.32 195.50 194.21
  Q 205.11 193.47 218.75 193.40
  Q 219.96 193.39 221.68 193.82
  Q 222.45 194.01 222.83 193.80
  Q 223.44 193.47 223.35 192.54"
/>
<path stroke="#9c8e86" vector-effect="non-scaling-stroke" d="
  M 229.61 192.83
  Q 233.96 191.11 238.85 191.03
  Q 243.81 190.94 245.24 190.38
  C 249.26 188.81 252.10 184.51 250.97 180.16
  C 249.90 176.02 244.51 171.08 240.06 174.80
  Q 238.63 176.01 237.49 176.47
  A 0.85 0.85 0.0 0 1 236.68 174.98
  Q 238.89 173.42 240.80 172.56
  C 242.62 171.74 243.45 170.89 242.73 168.84
  Q 238.89 157.94 228.39 161.87
  C 226.67 162.51 225.35 163.62 224.45 165.13
  A 0.57 0.57 0.0 0 1 223.43 165.06
  C 222.08 161.78 221.08 157.92 218.07 155.95
  Q 213.23 152.76 207.24 155.01
  C 200.90 157.39 201.42 162.07 200.67 167.63
  A 1.12 1.12 0.0 0 1 198.78 168.28
  Q 194.07 163.69 189.61 167.93
  C 186.64 170.76 188.66 172.97 182.78 173.23
  C 178.54 173.41 174.85 177.09 174.80 181.56
  Q 174.71 190.71 185.29 191.09
  Q 193.01 191.37 200.74 191.37
  C 206.38 191.37 214.39 192.09 221.26 191.55
  Q 222.55 191.45 223.35 192.54"
/>
<path stroke="#828681" vector-effect="non-scaling-stroke" d="
  M 101.59 169.65
  L 110.95 155.95
  A 2.37 2.37 0.0 0 1 113.64 155.03
  L 117.08 156.15
  Q 117.58 156.31 117.99 155.98
  Q 119.45 154.77 118.71 152.84
  Q 114.08 140.65 109.42 128.18
  A 2.83 2.82 -14.4 0 0 106.36 126.38
  L 81.60 130.03
  A 1.94 1.94 0.0 0 0 79.97 132.27
  Q 80.49 135.28 83.52 135.53
  A 0.72 0.72 0.0 0 1 84.03 136.70
  Q 80.57 141.08 77.19 145.74
  C 69.12 156.86 75.89 166.58 81.71 176.55
  Q 84.69 181.67 93.00 197.83
  C 96.89 205.40 102.98 205.99 111.25 205.93
  Q 122.30 205.84 133.98 205.46
  A 1.18 1.18 0.0 0 0 135.13 204.29
  L 135.32 172.31
  Q 135.33 170.04 133.06 170.04
  L 101.83 170.12
  A 0.30 0.30 0.0 0 1 101.59 169.65"
/>
<path stroke="#e3f6f2" vector-effect="non-scaling-stroke" d="
  M 50.42 148.10
  A 3.61 1.26 0.0 0 0 46.81 146.84
  A 3.61 1.26 0.0 0 0 43.20 148.10
  A 3.61 1.26 0.0 0 0 46.81 149.36
  A 3.61 1.26 0.0 0 0 50.42 148.10"
/>
<path stroke="#e3f6f2" vector-effect="non-scaling-stroke" d="
  M 50.1399 153.6054
  A 1.29 1.29 0.0 0 0 48.8477 152.3177
  L 34.7277 152.3423
  A 1.29 1.29 0.0 0 0 33.4399 153.6346
  L 33.4401 153.7146
  A 1.29 1.29 0.0 0 0 34.7323 155.0023
  L 48.8523 154.9777
  A 1.29 1.29 0.0 0 0 50.1401 153.6854
  L 50.1399 153.6054"
/>
<path stroke="#9c8e86" vector-effect="non-scaling-stroke" d="
  M 136.30 73.65
  C 136.42 69.00 141.65 67.89 145.78 66.00
  A 0.68 0.68 0.0 0 0 146.16 65.27
  C 145.26 60.15 142.80 55.45 137.79 53.37
  Q 129.23 49.83 122.25 57.56
  A 1.26 1.26 0.0 0 1 120.06 56.81
  C 118.61 37.29 89.24 40.24 91.24 60.12
  A 1.56 1.56 0.0 0 1 88.72 61.50
  Q 82.12 56.29 76.77 62.08
  C 75.29 63.68 75.34 65.60 74.04 67.48
  A 1.13 1.11 15.2 0 1 73.17 67.97
  C 70.52 68.10 67.98 67.91 65.59 69.02
  Q 59.45 71.90 58.12 77.98
  C 56.18 86.86 62.58 92.64 71.25 92.79
  Q 84.75 93.01 98.24 93.22
  Q 102.28 93.29 105.53 94.51
  A 1.27 1.27 0.0 0 0 107.16 93.77
  C 109.90 86.67 113.30 79.28 122.25 79.20
  Q 138.21 79.06 154.65 79.25
  A 1.58 1.57 -9.0 0 0 156.16 77.18
  C 153.38 68.92 142.04 64.35 136.98 73.83
  A 0.36 0.36 0.0 0 1 136.30 73.65"
/>
<path stroke="#1e6261" vector-effect="non-scaling-stroke" d="
  M 128.64 122.11
  Q 136.62 106.51 144.83 91.03
  Q 146.88 87.18 149.17 83.76
  A 0.55 0.55 0.0 0 0 148.74 82.91
  Q 144.09 82.75 139.57 83.03
  Q 136.28 83.24 131.94 82.91
  C 124.84 82.36 117.10 81.14 113.12 89.14
  Q 107.53 100.38 101.71 111.29
  A 1.15 1.15 0.0 0 0 102.17 112.84
  L 125.50 125.71
  A 1.00 0.99 -59.6 0 0 126.82 125.36
  Q 127.71 123.93 128.64 122.11"
/>
<path stroke="#1e6261" vector-effect="non-scaling-stroke" d="
  M 182.09 103.57
  C 174.22 103.81 175.99 79.57 157.52 83.06
  C 152.10 84.08 148.38 90.91 146.35 95.42
  A 1.37 1.36 41.5 0 0 146.43 96.70
  Q 150.92 103.99 154.75 111.74
  Q 157.03 116.36 157.41 119.29
  Q 157.47 119.78 157.96 119.84
  L 175.19 122.08
  A 2.06 2.06 0.0 0 0 177.41 120.69
  L 182.77 104.49
  A 0.70 0.70 0.0 0 0 182.09 103.57"
/>
<path stroke="#9c8e86" vector-effect="non-scaling-stroke" d="
  M 90.94 71.48
  Q 85.67 70.87 81.77 74.35
  A 1.96 1.89 -68.9 0 1 80.76 74.82
  Q 74.14 75.82 71.78 82.03
  A 0.49 0.48 1.1 0 0 72.39 82.66
  Q 72.70 82.56 72.89 82.19
  C 75.66 76.89 79.81 77.42 84.34 74.62
  C 87.57 72.62 89.50 72.25 93.01 72.94
  A 0.63 0.62 13.8 0 0 93.73 72.51
  Q 95.71 65.66 102.52 63.62
  Q 104.52 63.02 102.43 62.97
  Q 98.65 62.88 95.61 65.79
  C 94.06 67.27 93.71 69.58 91.81 71.22
  Q 91.43 71.54 90.94 71.48"
/>
<path stroke="#1e6261" vector-effect="non-scaling-stroke" d="
  M 127.0151 100.7187
  A 9.11 0.74 118.2 0 0 131.9722 93.0397
  A 9.11 0.74 118.2 0 0 135.6249 84.6613
  A 9.11 0.74 118.2 0 0 130.6678 92.3403
  A 9.11 0.74 118.2 0 0 127.0151 100.7187"
/>
<path stroke="#1e6261" vector-effect="non-scaling-stroke" d="
  M 125.1783 105.5909
  A 0.27 0.27 0.0 0 0 125.0571 105.2288
  L 124.3770 104.8897
  A 0.27 0.27 0.0 0 0 124.0149 105.0108
  L 118.4017 116.2691
  A 0.27 0.27 0.0 0 0 118.5229 116.6312
  L 119.2030 116.9703
  A 0.27 0.27 0.0 0 0 119.5651 116.8492
  L 125.1783 105.5909"
/>
<path stroke="#1e6261" vector-effect="non-scaling-stroke" d="
  M 183.60 145.37
  Q 179.75 138.02 184.77 144.52
  Q 187.27 147.76 188.83 154.58
  A 1.39 1.38 12.7 0 0 189.32 155.35
  Q 192.62 157.92 193.82 161.90
  Q 194.00 162.48 194.55 162.73
  L 197.09 163.87
  A 0.60 0.59 -68.0 0 0 197.90 163.52
  C 198.73 161.14 199.26 158.44 200.97 156.58
  Q 204.15 153.10 208.79 151.39
  Q 209.28 151.21 209.01 150.76
  L 196.44 129.53
  A 1.22 1.22 0.0 0 0 194.79 129.09
  L 172.64 141.82
  A 1.67 1.66 -30.2 0 0 172.03 144.10
  L 184.71 165.86
  Q 185.60 167.39 187.11 166.45
  L 191.74 163.54
  A 1.79 1.79 0.0 0 0 192.33 161.11
  Q 187.76 153.32 183.60 145.37"
/>
<path stroke="#1e6261" vector-effect="non-scaling-stroke" d="
  M 146.51 190.15
  L 155.80 201.86
  A 2.30 2.30 0.0 0 0 158.13 202.66
  C 168.31 200.23 182.84 205.91 188.71 194.89
  Q 189.01 194.34 188.39 194.24
  C 186.01 193.84 183.40 194.04 181.43 193.52
  Q 169.82 190.49 172.44 177.81
  A 0.71 0.71 0.0 0 0 171.73 176.96
  Q 167.73 177.01 163.67 176.96
  C 161.64 176.94 160.48 175.92 160.05 174.04
  A 0.61 0.60 57.6 0 0 158.99 173.80
  L 146.51 189.36
  A 0.63 0.62 45.4 0 0 146.51 190.15"
/>
<path stroke="#1e6261" vector-effect="non-scaling-stroke" d="
  M 108.37 136.13
  C 107.69 134.42 107.40 131.84 105.51 130.49
  Q 105.08 130.19 104.56 130.29
  C 99.10 131.42 93.59 131.00 88.23 133.28
  A 0.72 0.72 0.0 0 0 87.80 134.02
  C 88.02 135.86 88.06 136.96 86.98 138.56
  C 81.62 146.51 72.13 155.31 80.46 165.42
  C 84.02 169.74 90.54 170.35 95.73 169.70
  A 2.95 2.92 13.0 0 0 97.81 168.41
  Q 103.48 159.89 109.57 151.07
  Q 110.26 150.08 112.70 148.55
  A 0.64 0.63 -26.6 0 0 112.96 147.78
  Q 110.67 141.92 108.37 136.13"
/>
<path stroke="#1e6261" vector-effect="non-scaling-stroke" d="
  M 108.99 185.22
  L 92.20 185.54
  Q 91.57 185.56 91.75 186.16
  Q 93.68 192.57 97.78 197.90
  Q 99.26 199.83 101.54 200.61
  C 110.11 203.55 121.68 203.07 130.48 202.16
  A 1.14 1.12 87.2 0 0 131.49 201.03
  L 131.35 174.74
  A 0.82 0.82 0.0 0 0 130.52 173.92
  Q 111.63 174.22 92.74 173.70
  Q 87.93 173.57 85.14 172.73
  Q 84.57 172.56 84.77 173.13
  Q 86.85 178.98 90.68 183.87
  Q 91.01 184.29 91.54 184.23
  Q 100.29 183.21 109.04 184.48
  A 0.37 0.37 0.0 0 1 108.99 185.22"
/>
<path stroke="#1e6261" vector-effect="non-scaling-stroke" d="
  M 128.7996 184.5994
  A 0.62 0.62 0.0 0 0 128.1763 183.9826
  L 113.8965 184.0574
  A 0.62 0.62 0.0 0 0 113.2798 184.6806
  L 113.2804 184.8006
  A 0.62 0.62 0.0 0 0 113.9037 185.4174
  L 128.1835 185.3426
  A 0.62 0.62 0.0 0 0 128.8002 184.7194
  L 128.7996 184.5994"
/>
</g>
<path fill="#c8ede6" d="
  M 205.61 58.28
  Q 201.88 59.28 199.25 59.51
  C 192.32 60.10 184.04 60.46 176.72 59.45
  Q 175.45 59.27 175.10 60.08
  A 1.44 1.44 0.0 0 0 176.59 62.08
  C 187.30 60.78 198.18 61.98 209.23 62.45
  Q 208.67 62.88 208.62 63.26
  Q 208.57 63.56 209.45 64.62
  L 188.60 65.13
  Q 185.44 65.21 188.02 67.01
  Q 188.89 67.62 191.76 67.66
  Q 202.04 67.80 212.35 67.90
  Q 212.64 67.91 212.64 68.20
  Q 212.64 68.38 212.58 68.47
  L 213.50 70.08
  L 175.93 70.58
  A 0.68 0.68 0.0 0 0 175.41 71.68
  C 176.02 72.43 177.37 72.95 178.44 73.00
  Q 192.20 73.71 205.95 72.87
  C 208.97 72.69 211.99 73.48 215.14 73.23
  Q 217.12 79.38 219.03 85.55
  C 220.00 88.69 220.03 92.21 220.77 95.52
  A 1.94 1.92 3.7 0 0 222.01 96.92
  Q 244.68 105.15 249.68 129.04
  Q 252.57 142.85 246.21 155.94
  Q 245.98 156.41 246.34 156.80
  Q 259.55 171.36 254.31 190.01
  C 249.79 206.10 232.17 215.87 216.25 209.25
  A 2.16 2.15 -62.3 0 0 213.60 210.08
  C 201.48 228.90 175.73 233.86 159.76 216.55
  A 1.00 1.00 0.0 0 0 158.27 216.56
  C 146.04 230.33 128.10 238.61 109.65 236.17
  C 87.29 233.21 69.84 216.51 63.51 194.99
  C 62.11 190.23 61.51 184.83 60.94 179.70
  A 1.57 1.57 0.0 0 0 59.17 178.31
  Q 47.62 179.80 37.93 173.12
  Q 40.33 172.54 40.11 170.70
  Q 40.05 170.17 39.59 169.92
  Q 36.72 168.31 33.67 169.52
  Q 33.72 168.52 33.12 167.90
  Q 32.93 167.70 32.81 167.95
  L 32.32 168.95
  A 0.30 0.30 0.0 0 1 31.76 168.78
  Q 32.03 166.61 31.06 166.28
  L 60.75 166.27
  A 1.52 1.52 0.0 0 0 62.11 164.07
  C 61.61 163.06 60.03 163.33 59.13 163.32
  Q 45.48 163.25 31.81 163.53
  A 1.74 1.70 -31.7 0 1 31.00 163.35
  Q 30.17 162.93 28.94 163.05
  Q 29.41 162.40 28.76 161.51
  Q 38.80 160.24 44.50 160.45
  Q 53.06 160.77 61.45 160.66
  A 0.96 0.96 0.0 0 0 62.26 159.22
  C 60.95 156.99 54.34 158.06 52.26 158.70
  Q 51.78 158.85 51.33 158.60
  L 50.75 158.28
  Q 50.28 158.02 49.73 158.01
  Q 40.04 157.99 30.35 157.75
  C 29.30 157.72 28.28 157.19 27.22 156.96
  Q 25.72 155.00 25.39 151.51
  Q 23.07 126.54 44.51 116.95
  C 46.46 116.08 49.45 115.98 51.74 114.90
  Q 52.20 114.68 52.30 114.18
  Q 54.36 102.88 61.89 94.75
  L 62.67 94.51
  A 1.55 1.47 -46.4 0 1 63.47 94.47
  Q 69.41 95.75 75.50 95.69
  Q 90.12 95.52 104.66 95.34
  A 0.91 0.90 -76.5 0 1 105.47 96.67
  L 97.50 111.87
  A 2.32 2.32 0.0 0 0 98.43 114.98
  L 125.39 129.91
  A 2.77 2.77 0.0 0 0 129.20 128.76
  L 143.52 101.00
  Q 144.29 99.52 145.02 101.02
  Q 148.05 107.24 151.41 113.28
  Q 152.16 114.63 152.31 115.69
  A 1.05 1.05 0.0 0 1 151.94 116.66
  L 148.95 119.12
  Q 148.50 119.49 148.50 120.07
  C 148.47 121.91 149.74 122.63 151.51 122.86
  Q 164.23 124.53 176.85 126.05
  A 3.24 3.23 12.2 0 0 180.31 123.83
  Q 183.77 113.05 187.58 102.03
  Q 188.30 99.92 188.07 98.33
  A 1.25 1.25 0.0 0 0 187.50 97.47
  Q 184.91 95.91 182.98 98.25
  A 1.26 1.25 -36.8 0 1 180.86 97.95
  Q 178.56 92.65 175.53 87.55
  C 170.98 79.92 167.11 80.01 159.04 78.80
  Q 158.53 78.72 158.50 78.21
  Q 158.05 71.39 152.86 68.36
  C 149.76 66.54 148.92 66.14 148.03 62.32
  C 146.32 54.96 140.47 49.32 132.65 49.59
  Q 130.00 49.68 126.88 50.02
  C 154.44 30.98 182.47 35.66 205.61 58.28
  Z
  M 223.35 192.54
  L 229.61 192.83
  Q 236.18 194.73 242.38 193.76
  Q 248.78 192.75 251.82 188.62
  C 256.34 182.51 253.46 175.28 246.85 171.66
  A 1.53 1.53 0.0 0 1 246.18 170.93
  C 244.97 168.23 244.23 164.93 242.74 162.85
  C 238.95 157.59 231.30 156.90 225.94 160.14
  A 1.24 1.23 -29.0 0 1 224.19 159.64
  Q 222.82 156.92 220.58 154.79
  C 217.76 152.12 213.97 152.15 211.82 148.63
  Q 205.16 137.73 200.30 128.74
  Q 199.13 126.57 197.77 125.05
  A 1.27 1.24 70.5 0 0 196.90 124.62
  Q 195.30 124.52 193.88 125.35
  Q 180.52 133.12 167.74 140.75
  A 1.57 1.57 0.0 0 0 167.19 142.89
  L 182.57 169.40
  A 0.67 0.66 -26.9 0 1 182.26 170.34
  Q 174.20 173.90 165.33 172.92
  A 1.65 1.64 -87.6 0 1 163.87 171.33
  L 163.74 167.31
  A 0.73 0.73 0.0 0 0 163.31 166.66
  Q 160.79 165.50 159.52 167.06
  Q 150.85 177.75 142.73 188.07
  A 2.81 2.80 45.2 0 0 142.72 191.54
  Q 150.48 201.50 158.05 210.44
  Q 159.43 212.06 161.06 211.26
  Q 161.64 210.98 161.77 210.34
  L 162.46 207.04
  A 1.61 1.60 5.0 0 1 163.98 205.77
  Q 170.80 205.58 177.26 205.52
  C 184.40 205.45 188.42 201.78 192.04 196.24
  C 192.86 195.00 194.14 194.32 195.50 194.21
  Q 205.11 193.47 218.75 193.40
  Q 219.96 193.39 221.68 193.82
  Q 222.45 194.01 222.83 193.80
  Q 223.44 193.47 223.35 192.54
  Z
  M 101.59 169.65
  L 110.95 155.95
  A 2.37 2.37 0.0 0 1 113.64 155.03
  L 117.08 156.15
  Q 117.58 156.31 117.99 155.98
  Q 119.45 154.77 118.71 152.84
  Q 114.08 140.65 109.42 128.18
  A 2.83 2.82 -14.4 0 0 106.36 126.38
  L 81.60 130.03
  A 1.94 1.94 0.0 0 0 79.97 132.27
  Q 80.49 135.28 83.52 135.53
  A 0.72 0.72 0.0 0 1 84.03 136.70
  Q 80.57 141.08 77.19 145.74
  C 69.12 156.86 75.89 166.58 81.71 176.55
  Q 84.69 181.67 93.00 197.83
  C 96.89 205.40 102.98 205.99 111.25 205.93
  Q 122.30 205.84 133.98 205.46
  A 1.18 1.18 0.0 0 0 135.13 204.29
  L 135.32 172.31
  Q 135.33 170.04 133.06 170.04
  L 101.83 170.12
  A 0.30 0.30 0.0 0 1 101.59 169.65
  Z
  M 50.42 148.10
  A 3.61 1.26 0.0 0 0 46.81 146.84
  A 3.61 1.26 0.0 0 0 43.20 148.10
  A 3.61 1.26 0.0 0 0 46.81 149.36
  A 3.61 1.26 0.0 0 0 50.42 148.10
  Z
  M 50.1399 153.6054
  A 1.29 1.29 0.0 0 0 48.8477 152.3177
  L 34.7277 152.3423
  A 1.29 1.29 0.0 0 0 33.4399 153.6346
  L 33.4401 153.7146
  A 1.29 1.29 0.0 0 0 34.7323 155.0023
  L 48.8523 154.9777
  A 1.29 1.29 0.0 0 0 50.1401 153.6854
  L 50.1399 153.6054
  Z"
/>
<path fill="#3b1f1c" d="
  M 126.88 50.02
  Q 130.00 49.68 132.65 49.59
  C 140.47 49.32 146.32 54.96 148.03 62.32
  C 148.92 66.14 149.76 66.54 152.86 68.36
  Q 158.05 71.39 158.50 78.21
  Q 158.53 78.72 159.04 78.80
  C 167.11 80.01 170.98 79.92 175.53 87.55
  Q 178.56 92.65 180.86 97.95
  A 1.26 1.25 -36.8 0 0 182.98 98.25
  Q 184.91 95.91 187.50 97.47
  A 1.25 1.25 0.0 0 1 188.07 98.33
  Q 188.30 99.92 187.58 102.03
  Q 183.77 113.05 180.31 123.83
  A 3.24 3.23 12.2 0 1 176.85 126.05
  Q 164.23 124.53 151.51 122.86
  C 149.74 122.63 148.47 121.91 148.50 120.07
  Q 148.50 119.49 148.95 119.12
  L 151.94 116.66
  A 1.05 1.05 0.0 0 0 152.31 115.69
  Q 152.16 114.63 151.41 113.28
  Q 148.05 107.24 145.02 101.02
  Q 144.29 99.52 143.52 101.00
  L 129.20 128.76
  A 2.77 2.77 0.0 0 1 125.39 129.91
  L 98.43 114.98
  A 2.32 2.32 0.0 0 1 97.50 111.87
  L 105.47 96.67
  A 0.91 0.90 -76.5 0 0 104.66 95.34
  Q 90.12 95.52 75.50 95.69
  Q 69.41 95.75 63.47 94.47
  A 1.55 1.47 -46.4 0 0 62.67 94.51
  L 61.89 94.75
  L 62.09 94.32
  Q 62.33 93.82 61.89 93.49
  C 55.73 88.76 53.35 81.15 56.78 74.02
  Q 60.62 66.04 71.02 64.94
  A 2.22 2.22 0.0 0 0 72.80 63.67
  Q 76.87 54.84 86.69 56.93
  A 1.63 1.63 0.0 0 0 88.62 55.69
  C 91.22 43.90 101.64 37.52 112.70 42.15
  Q 119.28 44.90 121.72 52.57
  Q 121.90 53.12 122.39 52.82
  L 126.88 50.02
  Z
  M 136.30 73.65
  C 136.42 69.00 141.65 67.89 145.78 66.00
  A 0.68 0.68 0.0 0 0 146.16 65.27
  C 145.26 60.15 142.80 55.45 137.79 53.37
  Q 129.23 49.83 122.25 57.56
  A 1.26 1.26 0.0 0 1 120.06 56.81
  C 118.61 37.29 89.24 40.24 91.24 60.12
  A 1.56 1.56 0.0 0 1 88.72 61.50
  Q 82.12 56.29 76.77 62.08
  C 75.29 63.68 75.34 65.60 74.04 67.48
  A 1.13 1.11 15.2 0 1 73.17 67.97
  C 70.52 68.10 67.98 67.91 65.59 69.02
  Q 59.45 71.90 58.12 77.98
  C 56.18 86.86 62.58 92.64 71.25 92.79
  Q 84.75 93.01 98.24 93.22
  Q 102.28 93.29 105.53 94.51
  A 1.27 1.27 0.0 0 0 107.16 93.77
  C 109.90 86.67 113.30 79.28 122.25 79.20
  Q 138.21 79.06 154.65 79.25
  A 1.58 1.57 -9.0 0 0 156.16 77.18
  C 153.38 68.92 142.04 64.35 136.98 73.83
  A 0.36 0.36 0.0 0 1 136.30 73.65
  Z
  M 128.64 122.11
  Q 136.62 106.51 144.83 91.03
  Q 146.88 87.18 149.17 83.76
  A 0.55 0.55 0.0 0 0 148.74 82.91
  Q 144.09 82.75 139.57 83.03
  Q 136.28 83.24 131.94 82.91
  C 124.84 82.36 117.10 81.14 113.12 89.14
  Q 107.53 100.38 101.71 111.29
  A 1.15 1.15 0.0 0 0 102.17 112.84
  L 125.50 125.71
  A 1.00 0.99 -59.6 0 0 126.82 125.36
  Q 127.71 123.93 128.64 122.11
  Z
  M 182.09 103.57
  C 174.22 103.81 175.99 79.57 157.52 83.06
  C 152.10 84.08 148.38 90.91 146.35 95.42
  A 1.37 1.36 41.5 0 0 146.43 96.70
  Q 150.92 103.99 154.75 111.74
  Q 157.03 116.36 157.41 119.29
  Q 157.47 119.78 157.96 119.84
  L 175.19 122.08
  A 2.06 2.06 0.0 0 0 177.41 120.69
  L 182.77 104.49
  A 0.70 0.70 0.0 0 0 182.09 103.57
  Z"
/>
<path fill="#fdfcef" d="
  M 136.98 73.83
  C 142.04 64.35 153.38 68.92 156.16 77.18
  A 1.58 1.57 -9.0 0 1 154.65 79.25
  Q 138.21 79.06 122.25 79.20
  C 113.30 79.28 109.90 86.67 107.16 93.77
  A 1.27 1.27 0.0 0 1 105.53 94.51
  Q 102.28 93.29 98.24 93.22
  Q 84.75 93.01 71.25 92.79
  C 62.58 92.64 56.18 86.86 58.12 77.98
  Q 59.45 71.90 65.59 69.02
  C 67.98 67.91 70.52 68.10 73.17 67.97
  A 1.13 1.11 15.2 0 0 74.04 67.48
  C 75.34 65.60 75.29 63.68 76.77 62.08
  Q 82.12 56.29 88.72 61.50
  A 1.56 1.56 0.0 0 0 91.24 60.12
  C 89.24 40.24 118.61 37.29 120.06 56.81
  A 1.26 1.26 0.0 0 0 122.25 57.56
  Q 129.23 49.83 137.79 53.37
  C 142.80 55.45 145.26 60.15 146.16 65.27
  A 0.68 0.68 0.0 0 1 145.78 66.00
  C 141.65 67.89 136.42 69.00 136.30 73.65
  A 0.36 0.36 0.0 0 0 136.98 73.83
  Z
  M 90.94 71.48
  Q 85.67 70.87 81.77 74.35
  A 1.96 1.89 -68.9 0 1 80.76 74.82
  Q 74.14 75.82 71.78 82.03
  A 0.49 0.48 1.1 0 0 72.39 82.66
  Q 72.70 82.56 72.89 82.19
  C 75.66 76.89 79.81 77.42 84.34 74.62
  C 87.57 72.62 89.50 72.25 93.01 72.94
  A 0.63 0.62 13.8 0 0 93.73 72.51
  Q 95.71 65.66 102.52 63.62
  Q 104.52 63.02 102.43 62.97
  Q 98.65 62.88 95.61 65.79
  C 94.06 67.27 93.71 69.58 91.81 71.22
  Q 91.43 71.54 90.94 71.48
  Z"
/>
<path fill="#fefefe" d="
  M 205.61 58.28
  Q 211.93 59.83 218.96 59.39
  A 1.22 1.22 0.0 0 1 220.08 61.23
  Q 219.57 62.09 218.50 62.02
  Q 213.76 61.73 209.23 62.45
  C 198.18 61.98 187.30 60.78 176.59 62.08
  A 1.44 1.44 0.0 0 1 175.10 60.08
  Q 175.45 59.27 176.72 59.45
  C 184.04 60.46 192.32 60.10 199.25 59.51
  Q 201.88 59.28 205.61 58.28
  Z"
/>
<path fill="#3b1f1c" d="
  M 91.81 71.22
  C 93.71 69.58 94.06 67.27 95.61 65.79
  Q 98.65 62.88 102.43 62.97
  Q 104.52 63.02 102.52 63.62
  Q 95.71 65.66 93.73 72.51
  A 0.63 0.62 13.8 0 1 93.01 72.94
  C 89.50 72.25 87.57 72.62 84.34 74.62
  C 79.81 77.42 75.66 76.89 72.89 82.19
  Q 72.70 82.56 72.39 82.66
  A 0.49 0.48 1.1 0 1 71.78 82.03
  Q 74.14 75.82 80.76 74.82
  A 1.96 1.89 -68.9 0 0 81.77 74.35
  Q 85.67 70.87 90.94 71.48
  Q 91.43 71.54 91.81 71.22
  Z"
/>
<path fill="#fefefe" d="
  M 209.45 64.62
  L 212.59 65.85
  Q 213.02 66.02 212.94 66.48
  L 212.58 68.47
  Q 212.64 68.38 212.64 68.20
  Q 212.64 67.91 212.35 67.90
  Q 202.04 67.80 191.76 67.66
  Q 188.89 67.62 188.02 67.01
  Q 185.44 65.21 188.60 65.13
  L 209.45 64.62
  Z"
/>
<path fill="#fefefe" d="
  M 213.50 70.08
  Q 215.54 71.38 215.14 73.23
  C 211.99 73.48 208.97 72.69 205.95 72.87
  Q 192.20 73.71 178.44 73.00
  C 177.37 72.95 176.02 72.43 175.41 71.68
  A 0.68 0.68 0.0 0 1 175.93 70.58
  L 213.50 70.08
  Z"
/>
<rect fill="#fefefe" x="-4.99" y="-1.35" transform="translate(220.98,71.92) rotate(0.1)" width="9.98" height="2.70" rx="1.29"/>
<path fill="#00a5a5" d="
  M 128.64 122.11
  Q 127.71 123.93 126.82 125.36
  A 1.00 0.99 -59.6 0 1 125.50 125.71
  L 102.17 112.84
  A 1.15 1.15 0.0 0 1 101.71 111.29
  Q 107.53 100.38 113.12 89.14
  C 117.10 81.14 124.84 82.36 131.94 82.91
  Q 136.28 83.24 139.57 83.03
  Q 144.09 82.75 148.74 82.91
  A 0.55 0.55 0.0 0 1 149.17 83.76
  Q 146.88 87.18 144.83 91.03
  Q 136.62 106.51 128.64 122.11
  Z
  M 127.0151 100.7187
  A 9.11 0.74 118.2 0 0 131.9722 93.0397
  A 9.11 0.74 118.2 0 0 135.6249 84.6613
  A 9.11 0.74 118.2 0 0 130.6678 92.3403
  A 9.11 0.74 118.2 0 0 127.0151 100.7187
  Z
  M 125.1783 105.5909
  A 0.27 0.27 0.0 0 0 125.0571 105.2288
  L 124.3770 104.8897
  A 0.27 0.27 0.0 0 0 124.0149 105.0108
  L 118.4017 116.2691
  A 0.27 0.27 0.0 0 0 118.5229 116.6312
  L 119.2030 116.9703
  A 0.27 0.27 0.0 0 0 119.5651 116.8492
  L 125.1783 105.5909
  Z"
/>
<path fill="#00a5a5" d="
  M 157.52 83.06
  C 175.99 79.57 174.22 103.81 182.09 103.57
  A 0.70 0.70 0.0 0 1 182.77 104.49
  L 177.41 120.69
  A 2.06 2.06 0.0 0 1 175.19 122.08
  L 157.96 119.84
  Q 157.47 119.78 157.41 119.29
  Q 157.03 116.36 154.75 111.74
  Q 150.92 103.99 146.43 96.70
  A 1.37 1.36 41.5 0 1 146.35 95.42
  C 148.38 90.91 152.10 84.08 157.52 83.06
  Z"
/>
<ellipse fill="#3b1f1c" cx="0.00" cy="0.00" transform="translate(131.32,92.69) rotate(118.2)" rx="9.11" ry="0.74"/>
<rect fill="#3b1f1c" x="-0.65" y="-6.56" transform="translate(121.79,110.93) rotate(26.5)" width="1.30" height="13.12" rx="0.27"/>
<path fill="#3b1f1c" d="
  M 229.61 192.83
  Q 233.96 191.11 238.85 191.03
  Q 243.81 190.94 245.24 190.38
  C 249.26 188.81 252.10 184.51 250.97 180.16
  C 249.90 176.02 244.51 171.08 240.06 174.80
  Q 238.63 176.01 237.49 176.47
  A 0.85 0.85 0.0 0 1 236.68 174.98
  Q 238.89 173.42 240.80 172.56
  C 242.62 171.74 243.45 170.89 242.73 168.84
  Q 238.89 157.94 228.39 161.87
  C 226.67 162.51 225.35 163.62 224.45 165.13
  A 0.57 0.57 0.0 0 1 223.43 165.06
  C 222.08 161.78 221.08 157.92 218.07 155.95
  Q 213.23 152.76 207.24 155.01
  C 200.90 157.39 201.42 162.07 200.67 167.63
  A 1.12 1.12 0.0 0 1 198.78 168.28
  Q 194.07 163.69 189.61 167.93
  C 186.64 170.76 188.66 172.97 182.78 173.23
  C 178.54 173.41 174.85 177.09 174.80 181.56
  Q 174.71 190.71 185.29 191.09
  Q 193.01 191.37 200.74 191.37
  C 206.38 191.37 214.39 192.09 221.26 191.55
  Q 222.55 191.45 223.35 192.54
  Q 223.44 193.47 222.83 193.80
  Q 222.45 194.01 221.68 193.82
  Q 219.96 193.39 218.75 193.40
  Q 205.11 193.47 195.50 194.21
  C 194.14 194.32 192.86 195.00 192.04 196.24
  C 188.42 201.78 184.40 205.45 177.26 205.52
  Q 170.80 205.58 163.98 205.77
  A 1.61 1.60 5.0 0 0 162.46 207.04
  L 161.77 210.34
  Q 161.64 210.98 161.06 211.26
  Q 159.43 212.06 158.05 210.44
  Q 150.48 201.50 142.72 191.54
  A 2.81 2.80 45.2 0 1 142.73 188.07
  Q 150.85 177.75 159.52 167.06
  Q 160.79 165.50 163.31 166.66
  A 0.73 0.73 0.0 0 1 163.74 167.31
  L 163.87 171.33
  A 1.65 1.64 -87.6 0 0 165.33 172.92
  Q 174.20 173.90 182.26 170.34
  A 0.67 0.66 -26.9 0 0 182.57 169.40
  L 167.19 142.89
  A 1.57 1.57 0.0 0 1 167.74 140.75
  Q 180.52 133.12 193.88 125.35
  Q 195.30 124.52 196.90 124.62
  A 1.27 1.24 70.5 0 1 197.77 125.05
  Q 199.13 126.57 200.30 128.74
  Q 205.16 137.73 211.82 148.63
  C 213.97 152.15 217.76 152.12 220.58 154.79
  Q 222.82 156.92 224.19 159.64
  A 1.24 1.23 -29.0 0 0 225.94 160.14
  C 231.30 156.90 238.95 157.59 242.74 162.85
  C 244.23 164.93 244.97 168.23 246.18 170.93
  A 1.53 1.53 0.0 0 0 246.85 171.66
  C 253.46 175.28 256.34 182.51 251.82 188.62
  Q 248.78 192.75 242.38 193.76
  Q 236.18 194.73 229.61 192.83
  Z
  M 183.60 145.37
  Q 179.75 138.02 184.77 144.52
  Q 187.27 147.76 188.83 154.58
  A 1.39 1.38 12.7 0 0 189.32 155.35
  Q 192.62 157.92 193.82 161.90
  Q 194.00 162.48 194.55 162.73
  L 197.09 163.87
  A 0.60 0.59 -68.0 0 0 197.90 163.52
  C 198.73 161.14 199.26 158.44 200.97 156.58
  Q 204.15 153.10 208.79 151.39
  Q 209.28 151.21 209.01 150.76
  L 196.44 129.53
  A 1.22 1.22 0.0 0 0 194.79 129.09
  L 172.64 141.82
  A 1.67 1.66 -30.2 0 0 172.03 144.10
  L 184.71 165.86
  Q 185.60 167.39 187.11 166.45
  L 191.74 163.54
  A 1.79 1.79 0.0 0 0 192.33 161.11
  Q 187.76 153.32 183.60 145.37
  Z
  M 146.51 190.15
  L 155.80 201.86
  A 2.30 2.30 0.0 0 0 158.13 202.66
  C 168.31 200.23 182.84 205.91 188.71 194.89
  Q 189.01 194.34 188.39 194.24
  C 186.01 193.84 183.40 194.04 181.43 193.52
  Q 169.82 190.49 172.44 177.81
  A 0.71 0.71 0.0 0 0 171.73 176.96
  Q 167.73 177.01 163.67 176.96
  C 161.64 176.94 160.48 175.92 160.05 174.04
  A 0.61 0.60 57.6 0 0 158.99 173.80
  L 146.51 189.36
  A 0.63 0.62 45.4 0 0 146.51 190.15
  Z"
/>
<path fill="#3b1f1c" d="
  M 101.59 169.65
  A 0.30 0.30 0.0 0 0 101.83 170.12
  L 133.06 170.04
  Q 135.33 170.04 135.32 172.31
  L 135.13 204.29
  A 1.18 1.18 0.0 0 1 133.98 205.46
  Q 122.30 205.84 111.25 205.93
  C 102.98 205.99 96.89 205.40 93.00 197.83
  Q 84.69 181.67 81.71 176.55
  C 75.89 166.58 69.12 156.86 77.19 145.74
  Q 80.57 141.08 84.03 136.70
  A 0.72 0.72 0.0 0 0 83.52 135.53
  Q 80.49 135.28 79.97 132.27
  A 1.94 1.94 0.0 0 1 81.60 130.03
  L 106.36 126.38
  A 2.83 2.82 -14.4 0 1 109.42 128.18
  Q 114.08 140.65 118.71 152.84
  Q 119.45 154.77 117.99 155.98
  Q 117.58 156.31 117.08 156.15
  L 113.64 155.03
  A 2.37 2.37 0.0 0 0 110.95 155.95
  L 101.59 169.65
  Z
  M 108.37 136.13
  C 107.69 134.42 107.40 131.84 105.51 130.49
  Q 105.08 130.19 104.56 130.29
  C 99.10 131.42 93.59 131.00 88.23 133.28
  A 0.72 0.72 0.0 0 0 87.80 134.02
  C 88.02 135.86 88.06 136.96 86.98 138.56
  C 81.62 146.51 72.13 155.31 80.46 165.42
  C 84.02 169.74 90.54 170.35 95.73 169.70
  A 2.95 2.92 13.0 0 0 97.81 168.41
  Q 103.48 159.89 109.57 151.07
  Q 110.26 150.08 112.70 148.55
  A 0.64 0.63 -26.6 0 0 112.96 147.78
  Q 110.67 141.92 108.37 136.13
  Z
  M 108.99 185.22
  L 92.20 185.54
  Q 91.57 185.56 91.75 186.16
  Q 93.68 192.57 97.78 197.90
  Q 99.26 199.83 101.54 200.61
  C 110.11 203.55 121.68 203.07 130.48 202.16
  A 1.14 1.12 87.2 0 0 131.49 201.03
  L 131.35 174.74
  A 0.82 0.82 0.0 0 0 130.52 173.92
  Q 111.63 174.22 92.74 173.70
  Q 87.93 173.57 85.14 172.73
  Q 84.57 172.56 84.77 173.13
  Q 86.85 178.98 90.68 183.87
  Q 91.01 184.29 91.54 184.23
  Q 100.29 183.21 109.04 184.48
  A 0.37 0.37 0.0 0 1 108.99 185.22
  Z"
/>
<path fill="#00a5a5" d="
  M 183.60 145.37
  Q 187.76 153.32 192.33 161.11
  A 1.79 1.79 0.0 0 1 191.74 163.54
  L 187.11 166.45
  Q 185.60 167.39 184.71 165.86
  L 172.03 144.10
  A 1.67 1.66 -30.2 0 1 172.64 141.82
  L 194.79 129.09
  A 1.22 1.22 0.0 0 1 196.44 129.53
  L 209.01 150.76
  Q 209.28 151.21 208.79 151.39
  Q 204.15 153.10 200.97 156.58
  C 199.26 158.44 198.73 161.14 197.90 163.52
  A 0.60 0.59 -68.0 0 1 197.09 163.87
  L 194.55 162.73
  Q 194.00 162.48 193.82 161.90
  Q 192.62 157.92 189.32 155.35
  A 1.39 1.38 12.7 0 1 188.83 154.58
  Q 187.27 147.76 184.77 144.52
  Q 179.75 138.02 183.60 145.37
  Z"
/>
<path fill="#00a5a5" d="
  M 108.37 136.13
  Q 110.67 141.92 112.96 147.78
  A 0.64 0.63 -26.6 0 1 112.70 148.55
  Q 110.26 150.08 109.57 151.07
  Q 103.48 159.89 97.81 168.41
  A 2.95 2.92 13.0 0 1 95.73 169.70
  C 90.54 170.35 84.02 169.74 80.46 165.42
  C 72.13 155.31 81.62 146.51 86.98 138.56
  C 88.06 136.96 88.02 135.86 87.80 134.02
  A 0.72 0.72 0.0 0 1 88.23 133.28
  C 93.59 131.00 99.10 131.42 104.56 130.29
  Q 105.08 130.19 105.51 130.49
  C 107.40 131.84 107.69 134.42 108.37 136.13
  Z"
/>
<ellipse fill="#fefefe" cx="46.81" cy="148.10" rx="3.61" ry="1.26"/>
<rect fill="#fefefe" x="-8.35" y="-1.33" transform="translate(41.79,153.66) rotate(-0.1)" width="16.70" height="2.66" rx="1.29"/>
<path fill="#fdfcef" d="
  M 229.61 192.83
  L 223.35 192.54
  Q 222.55 191.45 221.26 191.55
  C 214.39 192.09 206.38 191.37 200.74 191.37
  Q 193.01 191.37 185.29 191.09
  Q 174.71 190.71 174.80 181.56
  C 174.85 177.09 178.54 173.41 182.78 173.23
  C 188.66 172.97 186.64 170.76 189.61 167.93
  Q 194.07 163.69 198.78 168.28
  A 1.12 1.12 0.0 0 0 200.67 167.63
  C 201.42 162.07 200.90 157.39 207.24 155.01
  Q 213.23 152.76 218.07 155.95
  C 221.08 157.92 222.08 161.78 223.43 165.06
  A 0.57 0.57 0.0 0 0 224.45 165.13
  C 225.35 163.62 226.67 162.51 228.39 161.87
  Q 238.89 157.94 242.73 168.84
  C 243.45 170.89 242.62 171.74 240.80 172.56
  Q 238.89 173.42 236.68 174.98
  A 0.85 0.85 0.0 0 0 237.49 176.47
  Q 238.63 176.01 240.06 174.80
  C 244.51 171.08 249.90 176.02 250.97 180.16
  C 252.10 184.51 249.26 188.81 245.24 190.38
  Q 243.81 190.94 238.85 191.03
  Q 233.96 191.11 229.61 192.83
  Z"
/>
<path fill="#fefefe" d="
  M 27.22 156.96
  C 28.28 157.19 29.30 157.72 30.35 157.75
  Q 40.04 157.99 49.73 158.01
  Q 50.28 158.02 50.75 158.28
  L 51.33 158.60
  Q 51.78 158.85 52.26 158.70
  C 54.34 158.06 60.95 156.99 62.26 159.22
  A 0.96 0.96 0.0 0 1 61.45 160.66
  Q 53.06 160.77 44.50 160.45
  Q 38.80 160.24 28.76 161.51
  C 28.20 161.05 27.46 160.67 26.68 160.71
  Q 19.46 161.04 12.27 160.32
  Q 11.70 160.26 11.74 159.69
  L 11.79 158.73
  A 0.44 0.44 0.0 0 1 12.66 158.63
  L 12.92 159.52
  A 0.22 0.22 0.0 0 0 13.34 159.51
  L 13.63 158.44
  Q 13.73 158.04 14.14 158.01
  C 18.45 157.77 23.19 158.53 27.22 156.96
  Z"
/>
<path fill="#fefefe" d="
  M 28.94 163.05
  Q 30.17 162.93 31.00 163.35
  A 1.74 1.70 -31.7 0 0 31.81 163.53
  Q 45.48 163.25 59.13 163.32
  C 60.03 163.33 61.61 163.06 62.11 164.07
  A 1.52 1.52 0.0 0 1 60.75 166.27
  L 31.06 166.28
  Q 28.71 166.09 26.39 165.99
  C 23.98 165.89 20.66 166.59 17.78 165.76
  A 1.01 1.01 0.0 0 1 17.96 163.78
  L 21.05 163.48
  Q 21.67 163.42 22.18 163.76
  Q 24.73 165.41 27.87 164.29
  Q 28.35 164.12 28.59 163.68
  L 28.94 163.05
  Z"
/>
<path fill="#fefefe" d="
  M 37.93 173.12
  Q 36.58 171.85 34.45 171.96
  Q 33.85 171.99 33.81 171.39
  L 33.67 169.52
  Q 36.72 168.31 39.59 169.92
  Q 40.05 170.17 40.11 170.70
  Q 40.33 172.54 37.93 173.12
  Z"
/>
<path fill="#00a5a5" d="
  M 108.99 185.22
  A 0.37 0.37 0.0 0 0 109.04 184.48
  Q 100.29 183.21 91.54 184.23
  Q 91.01 184.29 90.68 183.87
  Q 86.85 178.98 84.77 173.13
  Q 84.57 172.56 85.14 172.73
  Q 87.93 173.57 92.74 173.70
  Q 111.63 174.22 130.52 173.92
  A 0.82 0.82 0.0 0 1 131.35 174.74
  L 131.49 201.03
  A 1.14 1.12 87.2 0 1 130.48 202.16
  C 121.68 203.07 110.11 203.55 101.54 200.61
  Q 99.26 199.83 97.78 197.90
  Q 93.68 192.57 91.75 186.16
  Q 91.57 185.56 92.20 185.54
  L 108.99 185.22
  Z
  M 128.7996 184.5994
  A 0.62 0.62 0.0 0 0 128.1763 183.9826
  L 113.8965 184.0574
  A 0.62 0.62 0.0 0 0 113.2798 184.6806
  L 113.2804 184.8006
  A 0.62 0.62 0.0 0 0 113.9037 185.4174
  L 128.1835 185.3426
  A 0.62 0.62 0.0 0 0 128.8002 184.7194
  L 128.7996 184.5994
  Z"
/>
<path fill="#00a5a5" d="
  M 146.51 190.15
  A 0.63 0.62 45.4 0 1 146.51 189.36
  L 158.99 173.80
  A 0.61 0.60 57.6 0 1 160.05 174.04
  C 160.48 175.92 161.64 176.94 163.67 176.96
  Q 167.73 177.01 171.73 176.96
  A 0.71 0.71 0.0 0 1 172.44 177.81
  Q 169.82 190.49 181.43 193.52
  C 183.40 194.04 186.01 193.84 188.39 194.24
  Q 189.01 194.34 188.71 194.89
  C 182.84 205.91 168.31 200.23 158.13 202.66
  A 2.30 2.30 0.0 0 1 155.80 201.86
  L 146.51 190.15
  Z"
/>
<rect fill="#3b1f1c" x="-7.76" y="-0.68" transform="translate(121.04,184.70) rotate(-0.3)" width="15.52" height="1.36" rx="0.62"/>
</svg>
